<svg xmlns="http://www.w3.org/2000/svg" width="1942.372" height="1358.58" viewBox="0 0 1942.372 1358.58">
  <g id="skill_background" transform="translate(0 -1575.826)">
    <path id="skill_background_bottom" d="M0,565.427l45.867-14.042c45.867-14.042,137.6-42.126,228.907-27.71,91.52,14.229,182.4,71.146,273.92,100.167C640,652.862,731.733,653.985,823.04,633.2c91.52-20.969,182.4-64.032,273.92-123.383,91.307-59.164,183.04-134.8,274.347-146.973,91.52-12.17,182.4,39.131,273.92,56.543,91.307,17.412,183.04,1.311,228.907-6.927L1920,404.411V0H0Z" transform="translate(0 2287)" fill="rgba(221,237,228,0.8)"/>
    <path id="skill_background_top" d="M0,189l40.466,46.131c40.466,46.334,121.4,138.6,202.33,216.493s161.864,141.429,242.8,123.826,161.864-115.935,242.8-140.215,161.864,25.494,242.8,41.68,161.864-1.214,242.8-65.757c80.932-64.341,161.864-175.623,242.8-193.833s161.864,56.652,242.8,69.2c80.932,12.342,161.864-37.431,202.33-62.52l40.466-24.887V901.2H0Z" transform="translate(0 1386.826)" fill="rgba(221,237,228,0.8)"/>
  </g>
</svg>
